# xmcd
#
# Track frame offsets:
#	150
#	17650
#	40528
#	62337
#	79775
#	90191
#	115937
#	136290
#	154791
#	168583
#	183525
#	198270
#
# Disc length: 2776 seconds
#
# Revision: 1
# Processed by: cddbd v1.5.2PL0 Copyright (c) Steve Scherf et al.
# Submitted via: audiograbber 1.83.01
#
DISCID=8a0ad60c
DTITLE=Jurassic Blues - Jurassic Blues
DYEAR=2009
DGENRE=Blues
TTITLE0=Messin' with the Kid
TTITLE1=Help me
TTITLE2=Oh pretty woman
TTITLE3=High heel sneakers
TTITLE4=I ain't got you
TTITLE5=A thousand miles from home
TTITLE6=Come on
TTITLE7=Pretty baby
TTITLE8=Teenie weenie bit
TTITLE9=Ride my little machine
TTITLE10=Treat her right
TTITLE11=Jack's boogie
EXTD=
EXTT0=
EXTT1=
EXTT2=
EXTT3=
EXTT4=
EXTT5=
EXTT6=
EXTT7=
EXTT8=
EXTT9=
EXTT10=
EXTT11=
PLAYORDER=
